<?xml version="1.0" encoding="iso-8859-1"?>
<!-- Generator: Adobe Illustrator 19.0.0, SVG Export Plug-In . SVG Version: 6.00 Build 0)  -->
<svg version="1.1" id="Capa_1" xmlns="http://www.w3.org/2000/svg" xmlns:xlink="http://www.w3.org/1999/xlink" x="0px" y="0px"
	 viewBox="0 0 480 480" style="enable-background:new 0 0 480 480;" xml:space="preserve">
<path style="fill:#06AED5;" d="M248,40c0-17.672-14.328-32-32-32H40C22.328,8,8,22.328,8,40v8h240V40z"/>
<path style="fill:#FFB40E;" d="M196.96,172.464c-2.44,1.888-4.8,3.856-7.104,5.904c-0.696,0.616-1.376,1.24-2.064,1.872
	c-2.128,1.968-4.208,3.968-6.2,6.064c-0.752,0.792-1.472,1.616-2.208,2.432c-1.888,2.08-3.768,4.168-5.528,6.36
	c-0.656,0.816-1.248,1.688-1.88,2.52c-2.92,3.824-5.624,7.792-8.128,11.92c-0.944,1.544-1.936,3.056-2.816,4.64
	c-0.936,1.696-1.76,3.456-2.624,5.184c-0.984,1.968-1.976,3.936-2.872,5.96c-0.744,1.696-1.408,3.424-2.088,5.152
	c-0.856,2.184-1.672,4.376-2.416,6.608c-0.56,1.688-1.088,3.392-1.584,5.104c-0.696,2.4-1.312,4.84-1.872,7.296
	c-0.376,1.632-0.76,3.256-1.072,4.912c-0.528,2.768-0.928,5.584-1.28,8.408c-0.176,1.408-0.416,2.8-0.552,4.224
	C144.248,271.296,144,275.616,144,280c0,4.2,0.256,8.328,0.624,12.432c0.08,0.864,0.152,1.72,0.24,2.584
	c0.432,3.936,1.016,7.824,1.776,11.648c0.152,0.752,0.336,1.488,0.496,2.24c0.744,3.416,1.608,6.792,2.6,10.112
	c0.2,0.664,0.368,1.344,0.576,2c1.128,3.568,2.432,7.056,3.84,10.488c0.408,1,0.84,1.992,1.272,2.984
	c1.416,3.232,2.928,6.416,4.584,9.512c2.488,4.656,5.264,9.136,8.264,13.448c0.408,0.584,0.864,1.136,1.28,1.712
	c2.544,3.536,5.248,6.952,8.112,10.224c0.776,0.888,1.584,1.752,2.384,2.624c2.76,2.992,5.648,5.864,8.672,8.6
	c0.776,0.704,1.536,1.424,2.328,2.112c3.792,3.288,7.728,6.416,11.88,9.272c21.912,15.112,48.44,24,77.072,24
	c29.384,0,56.52-9.416,78.76-25.264c12.36-8.808,23.168-19.616,31.976-31.976C406.584,336.52,416,309.384,416,280
	c0-75.112-60.888-136-136-136c-11.04,0-21.72,1.456-32,3.944c-18.28,4.416-35.104,12.544-49.68,23.496
	C197.872,171.784,197.408,172.12,196.96,172.464z"/>
<path style="fill:#DD3232;" d="M358.76,390.736l-0.008,0.008l74.624,74.624c4.24,4.24,10,6.624,16,6.624
	C461.872,472,472,461.872,472,449.376c0-6-2.384-11.76-6.624-16l-74.624-74.624l-0.008,0.008
	C381.928,371.12,371.12,381.928,358.76,390.736z"/>
<path style="fill:#FFF1D0;" d="M160.16,344.288c0.4,0.752,0.856,1.464,1.272,2.208c1.448,2.576,2.992,5.096,4.6,7.568
	c0.688,1.056,1.36,2.112,2.072,3.144c1.904,2.752,3.904,5.432,6,8.032c0.88,1.096,1.8,2.144,2.712,3.208
	c0.6,0.696,1.16,1.416,1.776,2.096c0.024,0.024,0.04,0.048,0.056,0.064c1.056,1.176,2.16,2.296,3.256,3.432
	c1.2,1.256,2.416,2.488,3.664,3.696c1.488,1.432,2.976,2.856,4.52,4.224c0.024,0.016,0.04,0.04,0.064,0.064
	c0.48,0.424,0.992,0.816,1.48,1.232c1.208,1.032,2.424,2.048,3.672,3.048c2.48,1.976,5,3.888,7.616,5.696c0,0,0.008,0,0.008,0.008
	c-4.144-2.856-8.08-5.984-11.88-9.272c-0.792-0.688-1.552-1.408-2.328-2.112c-3.016-2.736-5.912-5.608-8.672-8.6
	c-0.8-0.872-1.608-1.736-2.384-2.624c-2.864-3.272-5.568-6.688-8.112-10.224c-0.416-0.584-0.872-1.128-1.28-1.712
	c-3-4.312-5.776-8.792-8.264-13.448c-1.656-3.096-3.168-6.28-4.584-9.512c-0.432-0.992-0.864-1.984-1.272-2.984
	c-1.408-3.432-2.712-6.92-3.84-10.488c-0.208-0.664-0.376-1.336-0.576-2c-0.992-3.32-1.856-6.688-2.6-10.112
	c-0.16-0.752-0.344-1.488-0.496-2.24c-0.76-3.824-1.344-7.712-1.776-11.648c-0.096-0.856-0.168-1.72-0.24-2.584
	C144.256,288.328,144,284.2,144,280c0-4.384,0.248-8.704,0.656-12.976c0.136-1.424,0.368-2.808,0.552-4.224
	c0.36-2.824,0.752-5.64,1.28-8.408c0.312-1.656,0.696-3.28,1.072-4.912c0.568-2.456,1.176-4.888,1.872-7.296
	c0.496-1.72,1.024-3.416,1.584-5.104c0.744-2.232,1.56-4.432,2.416-6.608c0.68-1.728,1.344-3.456,2.088-5.152
	c0.896-2.024,1.888-3.992,2.872-5.96c0.864-1.736,1.688-3.496,2.624-5.184c0.88-1.584,1.872-3.096,2.816-4.64
	c2.504-4.128,5.216-8.096,8.128-11.92c0.64-0.832,1.224-1.704,1.88-2.52c1.76-2.2,3.632-4.28,5.528-6.36
	c0.736-0.808,1.456-1.64,2.208-2.432c2-2.096,4.08-4.104,6.2-6.064c0.68-0.632,1.368-1.256,2.064-1.872
	c2.304-2.048,4.664-4.016,7.104-5.904c0.448-0.344,0.912-0.68,1.368-1.024c14.576-10.952,31.392-19.08,49.68-23.496V48H8v296
	h152.008C160.056,344.096,160.104,344.192,160.16,344.288z"/>
<path style="fill:#06AED5;" d="M40,392h162.928c0,0-0.008,0-0.008-0.008c-2.616-1.8-5.136-3.72-7.616-5.696
	c-1.248-0.992-2.464-2.008-3.672-3.048c-0.488-0.416-1-0.808-1.48-1.232c-0.024-0.016-0.04-0.04-0.064-0.064
	c-1.552-1.368-3.04-2.792-4.52-4.224c-1.248-1.208-2.456-2.44-3.664-3.696c-1.088-1.136-2.2-2.256-3.256-3.432
	c-0.016-0.024-0.04-0.048-0.056-0.064c-0.608-0.68-1.176-1.4-1.776-2.096c-0.912-1.064-1.832-2.12-2.712-3.208
	c-2.096-2.6-4.096-5.28-6-8.032c-0.712-1.032-1.384-2.088-2.072-3.144c-1.608-2.472-3.152-4.992-4.6-7.568
	c-0.416-0.744-0.872-1.456-1.272-2.208c-0.048-0.096-0.096-0.192-0.152-0.288H8v16C8,377.672,22.328,392,40,392z"/>
<g>
	<polygon style="fill:#242A40;" points="128,96 112,96 112,136 96,136 96,104 80,104 80,136 64,136 64,80 48,80 48,136 32,136 
		32,152 144,152 144,136 128,136 	"/>
	<path style="fill:#242A40;" d="M383.416,236.92c-2.392-5.736-5.304-11.336-8.648-16.64l-13.528,8.536
		c2.864,4.544,5.368,9.344,7.416,14.256L383.416,236.92z"/>
	<path style="fill:#242A40;" d="M360.816,202.456c-15.008-15.64-34.032-26.52-55.016-31.464l-3.672,15.568
		c17.968,4.24,34.272,13.568,47.144,26.976L360.816,202.456z"/>
	<path style="fill:#242A40;" d="M40,400h160.576c22.784,15.136,50.08,24,79.424,24c28.632,0,55.272-8.496,77.72-22.968l70,69.992
		c5.776,5.792,13.464,8.976,21.656,8.976C466.264,480,480,466.264,480,449.368c0-8.176-3.184-15.864-8.968-21.656l0,0l-70-69.992
		C415.504,335.272,424,308.632,424,280c0-79.4-64.6-144-144-144c-8.192,0-16.176,0.848-24,2.168V40c0-22.056-17.944-40-40-40H40
		C17.944,0,0,17.944,0,40v304v16C0,382.056,17.944,400,40,400z M40,384c-13.232,0-24-10.768-24-24v-8h139.312
		c1.888,3.256,3.928,6.416,6.064,9.512c0.384,0.56,0.816,1.088,1.208,1.648c1.784,2.512,3.64,4.976,5.584,7.368
		c0.496,0.616,1,1.232,1.504,1.832c0.656,0.784,1.336,1.544,2.008,2.32c1.648,1.888,3.36,3.712,5.112,5.512
		c0.776,0.792,1.528,1.608,2.32,2.384c0.296,0.288,0.56,0.6,0.856,0.88c0.176,0.176,0.328,0.368,0.512,0.536H40V384z
		 M459.72,439.024c2.76,2.768,4.28,6.44,4.28,10.344c0,8.072-6.56,14.632-14.624,14.632c-3.848,0-7.616-1.56-10.344-4.288
		l-68.144-68.144c7.576-6.184,14.504-13.112,20.688-20.688L459.72,439.024z M408,280c0,28.656-9.584,55.056-25.56,76.416
		c-1.528,2.04-3.048,4.088-4.68,6.032c-0.456,0.544-0.968,1.048-1.44,1.584c-3.864,4.432-8.024,8.584-12.464,12.448
		c-0.472,0.408-0.912,0.856-1.392,1.264c-1.96,1.656-4.024,3.192-6.088,4.736C335.032,398.424,308.648,408,280,408
		c-27.784,0-53.448-8.992-74.448-24.088c-3.008-2.16-5.944-4.432-8.752-6.848c-1.184-1.016-2.32-2.088-3.472-3.152
		c-2.352-2.176-4.632-4.432-6.816-6.776c-1.096-1.176-2.184-2.344-3.232-3.56c-2.208-2.552-4.288-5.216-6.288-7.928
		c-0.8-1.088-1.656-2.12-2.416-3.232c-2.48-3.592-4.76-7.312-6.848-11.136c-0.2-0.368-0.424-0.72-0.616-1.096
		c-1.584-2.952-3.032-5.992-4.384-9.08c-0.456-1.024-0.88-2.064-1.304-3.104c-1.184-2.92-2.296-5.88-3.264-8.904
		c-0.28-0.872-0.536-1.752-0.792-2.632c-0.872-2.92-1.624-5.88-2.288-8.888c-0.216-0.992-0.448-1.976-0.648-2.976
		c-0.68-3.464-1.224-6.976-1.616-10.536c-0.088-0.816-0.152-1.648-0.232-2.464C152.24,287.776,152,283.92,152,280
		c0-4.112,0.232-8.176,0.616-12.192c0.112-1.192,0.304-2.36,0.456-3.544c0.352-2.872,0.768-5.728,1.304-8.536
		c0.232-1.216,0.512-2.416,0.776-3.616c0.64-2.864,1.36-5.704,2.192-8.496c0.28-0.952,0.568-1.912,0.872-2.856
		c1.064-3.304,2.248-6.56,3.576-9.744c0.152-0.36,0.28-0.728,0.432-1.088c6.448-15.12,15.72-28.752,27.16-40.232
		c0.12-0.12,0.24-0.24,0.368-0.36c2.64-2.632,5.416-5.128,8.272-7.52c0.36-0.304,0.72-0.608,1.08-0.912
		c2.6-2.128,5.312-4.12,8.072-6.04c0.624-0.432,1.224-0.896,1.864-1.312c2.4-1.608,4.896-3.064,7.408-4.504
		c10.208-5.808,21.304-10.368,33.2-13.264C259.4,153.4,269.528,152,280,152C350.576,152,408,209.424,408,280z M230.592,144.92
		c-1,0.36-2.008,0.712-2.992,1.096c-2.496,0.984-4.952,2.032-7.384,3.144c-1.824,0.832-3.616,1.704-5.392,2.6
		c-1.744,0.896-3.496,1.776-5.2,2.736c-2.952,1.648-5.824,3.408-8.632,5.248c-0.584,0.384-1.192,0.728-1.768,1.12
		c-26.736,18.04-46.632,44.616-56.416,75.48c-0.28,0.864-0.512,1.752-0.768,2.624c-0.976,3.296-1.84,6.632-2.584,10.016
		c-0.176,0.792-0.416,1.568-0.576,2.368l-54.632-34.144c-3.368-2.104-7.752-1.416-10.312,1.576l-48,56L38.08,285.2l43.52-50.776
		l54.872,34.296C136.176,272.448,136,276.208,136,280c0,19.848,4.04,38.776,11.336,56H16V56h224v85.768
		C236.808,142.696,233.688,143.784,230.592,144.92z M40,16h176c13.232,0,24,10.768,24,24H16C16,26.768,26.768,16,40,16z"/>
	<path style="fill:#242A40;" d="M180.44,265.344l-8.872,13.312l72,48c1.352,0.904,2.904,1.344,4.424,1.344
		c2.4,0,4.752-1.072,6.32-3.088l52.208-67.128l50.328,21.568l6.296-14.704l-56-24c-3.312-1.424-7.232-0.432-9.464,2.44
		l-51.44,66.128L180.44,265.344z"/>
	<rect x="96" y="416" style="fill:#242A40;" width="16" height="16"/>
	<rect x="96" y="448" style="fill:#242A40;" width="16" height="16"/>
	<rect x="128" y="448" style="fill:#242A40;" width="16" height="16"/>
	<rect x="160" y="448" style="fill:#242A40;" width="16" height="16"/>
	<rect x="192" y="448" style="fill:#242A40;" width="16" height="16"/>
	<rect x="224" y="448" style="fill:#242A40;" width="16" height="16"/>
	<rect x="256" y="448" style="fill:#242A40;" width="16" height="16"/>
	<rect x="288" y="448" style="fill:#242A40;" width="16" height="16"/>
	<rect x="328" y="448" style="fill:#242A40;" width="16" height="16"/>
	<rect x="360" y="448" style="fill:#242A40;" width="16" height="16"/>
	<rect x="288" y="72" style="fill:#242A40;" width="16" height="16"/>
	<rect x="320" y="72" style="fill:#242A40;" width="16" height="16"/>
	<rect x="352" y="72" style="fill:#242A40;" width="16" height="16"/>
	<rect x="384" y="72" style="fill:#242A40;" width="16" height="16"/>
	<rect x="416" y="72" style="fill:#242A40;" width="16" height="16"/>
	<rect x="448" y="72" style="fill:#242A40;" width="16" height="16"/>
	<rect x="448" y="104" style="fill:#242A40;" width="16" height="16"/>
	<rect x="448" y="136" style="fill:#242A40;" width="16" height="16"/>
	<rect x="448" y="168" style="fill:#242A40;" width="16" height="16"/>
	<rect x="448" y="200" style="fill:#242A40;" width="16" height="16"/>
	<rect x="448" y="232" style="fill:#242A40;" width="16" height="16"/>
	<rect x="448" y="264" style="fill:#242A40;" width="16" height="16"/>
	<rect x="448" y="296" style="fill:#242A40;" width="16" height="16"/>
	<rect x="448" y="328" style="fill:#242A40;" width="16" height="16"/>
	<rect x="448" y="360" style="fill:#242A40;" width="16" height="16"/>
</g>
<g>
</g>
<g>
</g>
<g>
</g>
<g>
</g>
<g>
</g>
<g>
</g>
<g>
</g>
<g>
</g>
<g>
</g>
<g>
</g>
<g>
</g>
<g>
</g>
<g>
</g>
<g>
</g>
<g>
</g>
</svg>
