<?xml version="1.0" encoding="iso-8859-1"?>
<!-- Generator: Adobe Illustrator 19.0.0, SVG Export Plug-In . SVG Version: 6.00 Build 0)  -->
<svg version="1.1" id="Capa_1" xmlns="http://www.w3.org/2000/svg" xmlns:xlink="http://www.w3.org/1999/xlink" x="0px" y="0px"
	 viewBox="0 0 491.312 491.312" style="enable-background:new 0 0 491.312 491.312;" xml:space="preserve">
<path style="fill:#EFD06F;" d="M269.656,269.656c0,26.512,21.488,48,48,48h72v-96h-72
	C291.144,221.656,269.656,243.144,269.656,269.656z M333.656,269.656c0,8.84-7.16,16-16,16s-16-7.16-16-16s7.16-16,16-16
	S333.656,260.816,333.656,269.656z"/>
<path style="fill:#36C2CC;" d="M109.656,133.656v224c0,13.256,10.744,24,24,24h256v-64h-72c-26.512,0-48-21.488-48-48
	s21.488-48,48-48h72v-64h-256C120.4,157.656,109.656,146.912,109.656,133.656z"/>
<path style="fill:#0D9CA0;" d="M109.656,133.656c0,13.256,10.744,24,24,24h256v-48h-256
	C120.4,109.656,109.656,120.4,109.656,133.656z"/>
<circle style="fill:#F4F2ED;" cx="317.656" cy="269.656" r="16"/>
<g>
	<path style="fill:#0F2323;" d="M85.048,248.72c1.24-2.992,0.552-6.432-1.736-8.72l-32-32L40,219.312l18.344,18.344H5.656v16h52.688
		L40,272l11.312,11.312l32-32l-0.056-0.056C83.992,250.528,84.632,249.712,85.048,248.72z"/>
	<path style="fill:#0F2323;" d="M448,208l-32,32c-2.288,2.288-2.976,5.728-1.736,8.72c0.408,0.992,1.056,1.816,1.784,2.544
		l-0.056,0.056l32,32l11.312-11.312l-18.336-18.352h44.688v-16h-44.688l18.344-18.344L448,208z"/>
	<path style="fill:#0F2323;" d="M237.656,5.656v52.688L219.312,40L208,51.312l32,32c1.528,1.528,3.576,2.344,5.656,2.344
		c1.032,0,2.072-0.2,3.064-0.608s1.816-1.056,2.544-1.784l0.056,0.056l32-32l-11.312-11.312l-18.352,18.336V5.656H237.656z"/>
	<path style="fill:#0F2323;" d="M253.656,485.656v-44.688L272,459.312L283.312,448l-32-32l-0.056,0.056
		c-0.728-0.728-1.552-1.376-2.544-1.784c-3-1.24-6.432-0.56-8.72,1.736l-32,32l11.312,11.312l18.352-18.352v44.688H253.656z"/>
	<path style="fill:#0F2323;" d="M397.656,157.656v-48c0-4.416-3.584-8-8-8h-256c-17.648,0-32,14.352-32,32v224
		c0,17.648,14.352,32,32,32h256c4.416,0,8-3.584,8-8V157.656z M133.656,117.656h248v32h-248c-8.824,0-16-7.176-16-16
		S124.832,117.656,133.656,117.656z M133.656,373.656c-8.824,0-16-7.176-16-16V161.208c4.728,2.752,10.144,4.448,16,4.448h248v48
		h-64c-30.88,0-56,25.12-56,56s25.12,56,56,56h64v48H133.656z M381.656,229.656v80h-64c-22.056,0-40-17.944-40-40s17.944-40,40-40
		H381.656z"/>
	<path style="fill:#0F2323;" d="M293.656,269.656c0,13.232,10.768,24,24,24s24-10.768,24-24s-10.768-24-24-24
		S293.656,256.424,293.656,269.656z M325.656,269.656c0,4.408-3.592,8-8,8s-8-3.592-8-8s3.592-8,8-8
		S325.656,265.248,325.656,269.656z"/>
	<path style="fill:#0F2323;" d="M197.656,222.064v-16.408h-16v16.408c-13.536,1.96-24,13.528-24,27.592c0,15.44,12.56,28,28,28h8
		c6.616,0,12,5.384,12,12s-5.384,12-12,12h-8c-6.616,0-12-5.384-12-12v-4h-16v4c0,14.064,10.464,25.632,24,27.592v16.408h16v-16.408
		c13.536-1.96,24-13.528,24-27.592c0-15.44-12.56-28-28-28h-8c-6.616,0-12-5.384-12-12s5.384-12,12-12h8c6.616,0,12,5.384,12,12v4
		h16v-4C221.656,235.592,211.192,224.024,197.656,222.064z"/>
	<path style="fill:#0F2323;" d="M37.656,77.656v16h48c1.032,0,2.072-0.2,3.064-0.608c2.984-1.24,4.936-4.16,4.936-7.392v-48h-16
		v28.688L11.312,0L0,11.312l66.344,66.344H37.656z"/>
	<path style="fill:#0F2323;" d="M77.656,424.968v28.688h16v-48c0-3.232-1.952-6.152-4.936-7.392
		c-0.992-0.416-2.032-0.536-3.064-0.536v-0.072h-48v16h28.688L0,480l11.312,11.312L77.656,424.968z"/>
	<path style="fill:#0F2323;" d="M453.656,413.656v-16h-48v0.072c-1.032,0-2.072,0.12-3.064,0.536
		c-2.984,1.24-4.936,4.16-4.936,7.392v48h16v-28.688L480,491.312L491.312,480l-66.344-66.344H453.656z"/>
	<path style="fill:#0F2323;" d="M413.656,66.344V37.656h-16v48c0,3.232,1.952,6.152,4.936,7.392
		c0.992,0.408,2.032,0.608,3.064,0.608h48v-16h-28.688l66.344-66.344L480,0L413.656,66.344z"/>
</g>
<g>
</g>
<g>
</g>
<g>
</g>
<g>
</g>
<g>
</g>
<g>
</g>
<g>
</g>
<g>
</g>
<g>
</g>
<g>
</g>
<g>
</g>
<g>
</g>
<g>
</g>
<g>
</g>
<g>
</g>
</svg>
