<?xml version="1.0" encoding="iso-8859-1"?>
<!-- Generator: Adobe Illustrator 19.0.0, SVG Export Plug-In . SVG Version: 6.00 Build 0)  -->
<svg version="1.1" id="Layer_1" xmlns="http://www.w3.org/2000/svg" xmlns:xlink="http://www.w3.org/1999/xlink" x="0px" y="0px"
	 viewBox="0 0 480 480" style="enable-background:new 0 0 480 480;" xml:space="preserve">
<path style="fill:#A6E0B5;" d="M424,216c0-4.408-3.592-8-8-8H304c-4.408,0-8,3.592-8,8v16h128V216z"/>
<g>
	<circle style="fill:#EDE7A6;" cx="272" cy="400" r="8"/>
	<circle style="fill:#EDE7A6;" cx="272" cy="304" r="8"/>
	<path style="fill:#EDE7A6;" d="M424,328v-24v-56H296v144h128V328z M365.656,365.656c-1.56,1.56-3.608,2.344-5.656,2.344
		s-4.096-0.784-5.656-2.344l-32-32l11.312-11.312L352,340.688V272h16v68.688l18.344-18.344l11.312,11.312L365.656,365.656z"/>
	<circle style="fill:#EDE7A6;" cx="272" cy="336" r="8"/>
	<circle style="fill:#EDE7A6;" cx="272" cy="368" r="8"/>
</g>
<g>
	<path style="fill:#A6E0B5;" d="M424,424v-16H296v16c0,4.408,3.592,8,8,8h112C420.408,432,424,428.408,424,424z"/>
	<path style="fill:#A6E0B5;" d="M321.136,128H344v-22.864C332.808,108.048,324.048,116.808,321.136,128z"/>
	<path style="fill:#A6E0B5;" d="M344,38.864V16h-22.864C324.048,27.192,332.808,35.952,344,38.864z"/>
	<path style="fill:#A6E0B5;" d="M158.864,16H136v22.864C147.192,35.952,155.952,27.192,158.864,16z"/>
	<path style="fill:#A6E0B5;" d="M136,105.136V128h22.864C155.952,116.808,147.192,108.048,136,105.136z"/>
</g>
<path style="fill:#78BA8C;" d="M175.28,128h129.44c3.384-20.056,19.224-35.888,39.28-39.28V55.28
	c-20.056-3.392-35.888-19.224-39.28-39.28H175.28c-3.392,20.056-19.224,35.888-39.28,39.28v33.448
	C156.056,92.112,171.888,107.944,175.28,128z M240,40c17.648,0,32,14.352,32,32s-14.352,32-32,32s-32-14.352-32-32
	S222.352,40,240,40z"/>
<circle style="fill:#EDE7A6;" cx="240" cy="72" r="16"/>
<path style="fill:#A6E0B5;" d="M176,216c0-4.408-3.592-8-8-8H56c-4.408,0-8,3.592-8,8v16h128V216z"/>
<path style="fill:#EDE7A6;" d="M176,328v-24v-56H48v144h128V328z M138.344,317.656L120,299.312V368h-16v-68.688l-18.344,18.344
	l-11.312-11.312l32-32c3.128-3.128,8.184-3.128,11.312,0l32,32L138.344,317.656z"/>
<path style="fill:#A6E0B5;" d="M176,424v-16H48v16c0,4.408,3.592,8,8,8h112C172.408,432,176,428.408,176,424z"/>
<g>
	<circle style="fill:#EDE7A6;" cx="24" cy="304" r="8"/>
	<circle style="fill:#EDE7A6;" cx="24" cy="368" r="8"/>
	<circle style="fill:#EDE7A6;" cx="24" cy="400" r="8"/>
	<circle style="fill:#EDE7A6;" cx="24" cy="336" r="8"/>
	<path style="fill:#EDE7A6;" d="M192,304v24v96c0,13.232-10.768,24-24,24H88v32h128V273.008C202.216,276.576,192,289.12,192,304z"/>
	<path style="fill:#EDE7A6;" d="M440,304v24v96c0,13.232-10.768,24-24,24h-80v32h128V273.008C450.216,276.576,440,289.12,440,304z"
		/>
</g>
<g>
	<path style="fill:#42342A;" d="M224,256c-12.304,0-23.496,4.688-32,12.32V216c0-13.232-10.768-24-24-24H56
		c-13.232,0-24,10.768-24,24v65.472c-2.512-0.896-5.184-1.472-8-1.472c-13.232,0-24,10.768-24,24c0,6.168,2.408,11.744,6.24,16
		C2.408,324.256,0,329.832,0,336s2.408,11.744,6.24,16C2.408,356.256,0,361.832,0,368s2.408,11.744,6.24,16
		C2.408,388.256,0,393.832,0,400c0,13.232,10.768,24,24,24c2.816,0,5.488-0.576,8-1.472V424c0,13.232,10.768,24,24,24h16v32h8h8v-32
		h80c13.232,0,24-10.768,24-24v-96v-24c0-14.88,10.216-27.424,24-30.992V480h8h8V264C232,259.584,228.416,256,224,256z M24,408
		c-4.408,0-8-3.592-8-8s3.592-8,8-8s8,3.592,8,8S28.408,408,24,408z M24,376c-4.408,0-8-3.592-8-8s3.592-8,8-8s8,3.592,8,8
		S28.408,376,24,376z M24,344c-4.408,0-8-3.592-8-8s3.592-8,8-8s8,3.592,8,8S28.408,344,24,344z M24,312c-4.408,0-8-3.592-8-8
		s3.592-8,8-8s8,3.592,8,8S28.408,312,24,312z M48,216c0-4.408,3.592-8,8-8h112c4.408,0,8,3.592,8,8v16H48V216z M48,248h128v56v24
		v64H48V248z M56,432c-4.408,0-8-3.592-8-8v-16h128v16c0,4.408-3.592,8-8,8H56z"/>
	<path style="fill:#42342A;" d="M472,256c-12.304,0-23.496,4.688-32,12.32V216c0-13.232-10.768-24-24-24H304
		c-13.232,0-24,10.768-24,24v65.472c-2.512-0.896-5.184-1.472-8-1.472c-13.232,0-24,10.768-24,24c0,6.168,2.408,11.744,6.24,16
		c-3.84,4.256-6.24,9.832-6.24,16s2.408,11.744,6.24,16c-3.84,4.256-6.24,9.832-6.24,16s2.408,11.744,6.24,16
		c-3.84,4.256-6.24,9.832-6.24,16c0,13.232,10.768,24,24,24c2.816,0,5.488-0.576,8-1.472V424c0,13.232,10.768,24,24,24h16v32h8h8
		v-32h80c13.232,0,24-10.768,24-24v-96v-24c0-14.88,10.216-27.424,24-30.992V480h8h8V264C480,259.584,476.416,256,472,256z M272,408
		c-4.408,0-8-3.592-8-8s3.592-8,8-8s8,3.592,8,8S276.408,408,272,408z M272,376c-4.408,0-8-3.592-8-8s3.592-8,8-8s8,3.592,8,8
		S276.408,376,272,376z M272,344c-4.408,0-8-3.592-8-8s3.592-8,8-8s8,3.592,8,8S276.408,344,272,344z M272,312c-4.408,0-8-3.592-8-8
		s3.592-8,8-8s8,3.592,8,8S276.408,312,272,312z M296,216c0-4.408,3.592-8,8-8h112c4.408,0,8,3.592,8,8v16H296V216z M296,248h128v56
		v24v64H296V248z M304,432c-4.408,0-8-3.592-8-8v-16h128v16c0,4.408-3.592,8-8,8H304z"/>
	<path style="fill:#42342A;" d="M128,144h224c4.416,0,8-3.584,8-8V8c0-4.416-3.584-8-8-8H128c-4.416,0-8,3.584-8,8v128
		C120,140.416,123.584,144,128,144z M344,128h-22.864c2.912-11.192,11.672-19.952,22.864-22.864V128z M344,16v22.864
		C332.808,35.952,324.048,27.192,321.136,16H344z M136,16h22.864C155.952,27.192,147.192,35.952,136,38.864V16z M136,55.28
		c20.056-3.384,35.888-19.224,39.28-39.28h129.44c3.384,20.056,19.224,35.888,39.28,39.28v33.448
		c-20.056,3.384-35.888,19.224-39.28,39.28H175.28c-3.384-20.056-19.224-35.888-39.28-39.28V55.28z M136,105.136
		c11.192,2.912,19.952,11.672,22.864,22.864H136V105.136z"/>
	<rect x="56" y="160" style="fill:#42342A;" width="16" height="16"/>
	<rect x="56" y="128" style="fill:#42342A;" width="16" height="16"/>
	<rect x="56" y="96" style="fill:#42342A;" width="16" height="16"/>
	<rect x="56" y="64" style="fill:#42342A;" width="16" height="16"/>
	<rect x="408" y="160" style="fill:#42342A;" width="16" height="16"/>
	<rect x="408" y="128" style="fill:#42342A;" width="16" height="16"/>
	<rect x="408" y="96" style="fill:#42342A;" width="16" height="16"/>
	<rect x="408" y="64" style="fill:#42342A;" width="16" height="16"/>
	<rect x="376" y="64" style="fill:#42342A;" width="16" height="16"/>
	<rect x="88" y="64" style="fill:#42342A;" width="16" height="16"/>
	<path style="fill:#42342A;" d="M240,104c17.648,0,32-14.352,32-32s-14.352-32-32-32s-32,14.352-32,32S222.352,104,240,104z M240,56
		c8.824,0,16,7.176,16,16s-7.176,16-16,16s-16-7.176-16-16S231.176,56,240,56z"/>
	<path style="fill:#42342A;" d="M106.344,274.344l-32,32l11.312,11.312L104,299.312V368h16v-68.688l18.344,18.344l11.312-11.312
		l-32-32C114.528,271.216,109.472,271.216,106.344,274.344z"/>
	<path style="fill:#42342A;" d="M368,340.688V272h-16v68.688l-18.344-18.344l-11.312,11.312l32,32
		c1.56,1.56,3.608,2.344,5.656,2.344s4.096-0.784,5.656-2.344l32-32l-11.312-11.312L368,340.688z"/>
</g>
<g>
</g>
<g>
</g>
<g>
</g>
<g>
</g>
<g>
</g>
<g>
</g>
<g>
</g>
<g>
</g>
<g>
</g>
<g>
</g>
<g>
</g>
<g>
</g>
<g>
</g>
<g>
</g>
<g>
</g>
</svg>
