<?xml version="1.0" encoding="iso-8859-1"?>
<!-- Generator: Adobe Illustrator 19.0.0, SVG Export Plug-In . SVG Version: 6.00 Build 0)  -->
<svg version="1.1" id="Capa_1" xmlns="http://www.w3.org/2000/svg" xmlns:xlink="http://www.w3.org/1999/xlink" x="0px" y="0px"
	 viewBox="0 0 480 480" style="enable-background:new 0 0 480 480;" xml:space="preserve">
<path style="fill:#BEE5BF;" d="M8,424h208V304V184H8V424z M112,232c39.768,0,72,32.232,72,72s-32.232,72-72,72s-72-32.232-72-72
	S72.232,232,112,232z"/>
<g>
	<path style="fill:#79ACC6;" d="M184,136H40c-17.672,0-32,14.328-32,32v16h208v-16C216,150.328,201.672,136,184,136z"/>
	<path style="fill:#79ACC6;" d="M8,440c0,17.672,14.328,32,32,32h144c17.672,0,32-14.328,32-32v-16H8V440z"/>
</g>
<path style="fill:#DFF3E3;" d="M112,376c39.768,0,72-32.232,72-72s-32.232-72-72-72s-72,32.232-72,72S72.232,376,112,376z M112,272
	c17.672,0,32,14.328,32,32s-14.328,32-32,32s-32-14.328-32-32S94.328,272,112,272z"/>
<circle style="fill:#CE7DA5;" cx="112" cy="304" r="32"/>
<polygon style="fill:#79ACC6;" points="328,256 288,304 328,352 408,352 376,304 408,256 "/>
<path style="fill:#DFF3E3;" d="M424,8H280c-17.672,0-32,14.328-32,32v80c0,17.672,14.328,32,32,32h48v56l64-56h32
	c17.672,0,32-14.328,32-32V40C456,22.328,441.672,8,424,8z M400,80l-16,16l-32,32l-32-32l-16-16c-8.84-8.84-8.84-23.16,0-32
	s23.16-8.84,32,0l16,16l16-16c8.84-8.84,23.16-8.84,32,0S408.84,71.16,400,80z"/>
<path style="fill:#CE7DA5;" d="M368,48l-16,16l-16-16c-8.84-8.84-23.16-8.84-32,0s-8.84,23.16,0,32l16,16l32,32l32-32l16-16
	c8.84-8.84,8.84-23.16,0-32S376.84,39.16,368,48z"/>
<g>
	<path style="fill:#493657;" d="M415.056,252.224c-1.392-2.6-4.104-4.224-7.056-4.224h-80c-2.376,0-4.624,1.056-6.144,2.872
		L284.248,296H224V168c0-22.056-17.944-40-40-40H40c-22.056,0-40,17.944-40,40v272c0,22.056,17.944,40,40,40h144
		c22.056,0,40-17.944,40-40V312h60.248l37.608,45.128c1.52,1.816,3.768,2.872,6.144,2.872h80c2.952,0,5.664-1.624,7.056-4.224
		s1.24-5.76-0.4-8.208L385.616,304l29.04-43.56C416.296,257.984,416.448,254.832,415.056,252.224z M40,144h144
		c13.232,0,24,10.768,24,24v8H16v-8C16,154.768,26.768,144,40,144z M184,464H40c-13.232,0-24-10.768-24-24v-8h192v8
		C208,453.232,197.232,464,184,464z M208,416H16V192h192v104h-16.408c-4.024-40.368-38.184-72-79.592-72c-44.112,0-80,35.888-80,80
		s35.888,80,80,80c41.416,0,75.568-31.632,79.592-72H208V416z M151.192,296c-3.72-18.232-19.872-32-39.192-32
		c-22.056,0-40,17.944-40,40s17.944,40,40,40c19.312,0,35.472-13.768,39.192-32h24.256c-3.96,31.52-30.872,56-63.448,56
		c-35.288,0-64-28.712-64-64s28.712-64,64-64c32.576,0,59.488,24.48,63.448,56H151.192z M134.528,312
		c-3.312,9.288-12.112,16-22.528,16c-13.232,0-24-10.768-24-24s10.768-24,24-24c10.416,0,19.216,6.712,22.528,16H112v16H134.528z
		 M369.344,299.56c-1.792,2.688-1.792,6.184,0,8.872L393.048,344h-61.304l-33.336-40l33.336-40h61.304L369.344,299.56z"/>
	<path style="fill:#493657;" d="M464,120V40c0-22.056-17.944-40-40-40H280c-22.056,0-40,17.944-40,40v80c0,22.056,17.944,40,40,40
		h40v48c0,3.144,1.832,5.984,4.696,7.28c1.056,0.488,2.176,0.72,3.304,0.72c1.904,0,3.784-0.68,5.272-1.976L395,160h29
		C446.056,160,464,142.056,464,120z M448,120c0,13.232-10.768,24-24,24h-32c-1.936,0-3.808,0.704-5.272,1.976L336,190.368V152
		c0-2.128-0.84-4.16-2.344-5.656S330.12,144,328,144h-48c-13.232,0-24-10.768-24-24V40c0-13.232,10.768-24,24-24h144
		c13.232,0,24,10.768,24,24V120z"/>
	<path style="fill:#493657;" d="M362.344,42.344L352,52.688l-10.344-10.344c-11.936-11.936-31.376-11.936-43.312,0
		c-11.944,11.936-11.944,31.376,0,43.312l48,48c1.56,1.56,3.608,2.344,5.656,2.344s4.096-0.784,5.656-2.344l48-48
		c11.944-11.936,11.944-31.376,0-43.312C393.72,30.408,374.28,30.408,362.344,42.344z M394.344,74.344L352,116.688l-42.344-42.344
		c-5.704-5.704-5.704-14.984,0-20.688c2.848-2.848,6.6-4.272,10.344-4.272s7.496,1.424,10.344,4.272l16,16
		c3.128,3.128,8.184,3.128,11.312,0l16-16c5.704-5.704,14.984-5.704,20.688,0S400.048,68.64,394.344,74.344z"/>
	<rect x="432" y="248" style="fill:#493657;" width="48" height="16"/>
	<rect x="432" y="296" style="fill:#493657;" width="48" height="16"/>
	<rect x="432" y="344" style="fill:#493657;" width="48" height="16"/>
</g>
<g>
</g>
<g>
</g>
<g>
</g>
<g>
</g>
<g>
</g>
<g>
</g>
<g>
</g>
<g>
</g>
<g>
</g>
<g>
</g>
<g>
</g>
<g>
</g>
<g>
</g>
<g>
</g>
<g>
</g>
</svg>
