<?xml version="1.0" encoding="iso-8859-1"?>
<!-- Generator: Adobe Illustrator 19.0.0, SVG Export Plug-In . SVG Version: 6.00 Build 0)  -->
<svg version="1.1" id="Capa_1" xmlns="http://www.w3.org/2000/svg" xmlns:xlink="http://www.w3.org/1999/xlink" x="0px" y="0px"
	 viewBox="0 0 480.002 480.002" style="enable-background:new 0 0 480.002 480.002;" xml:space="preserve">
<path style="fill:#EF5E65;" d="M384.002,376.001v-64h-72c-26.512,0-48-21.488-48-48s21.488-48,48-48h72v-64h-256
	c-13.256,0-24-10.744-24-24v224c0,13.256,10.744,24,24,24H384.002z"/>
<path style="fill:#EFD06F;" d="M264.002,264.001c0,26.512,21.488,48,48,48h72v-96h-72
	C285.49,216.001,264.002,237.489,264.002,264.001z M328.002,264.001c0,8.84-7.16,16-16,16s-16-7.16-16-16s7.16-16,16-16
	S328.002,255.161,328.002,264.001z"/>
<path style="fill:#0D9CA0;" d="M128.002,152.001h256v-48h-256c-13.256,0-24,10.744-24,24S114.746,152.001,128.002,152.001z"/>
<circle style="fill:#F4F2ED;" cx="312.002" cy="264.001" r="16"/>
<g>
	<path style="fill:#0F2323;" d="M80.002,232.001H27.314l18.344-18.344l-11.312-11.312l-32,32c-2.288,2.288-2.976,5.728-1.736,8.72
		c0.408,0.992,1.056,1.816,1.784,2.544l-0.056,0.056l32,32l11.312-11.312l-18.336-18.352h52.688V232.001z"/>
	<path style="fill:#0F2323;" d="M408.002,248.001h44.688l-18.344,18.344l11.312,11.312l32-32l-0.056-0.056
		c0.728-0.728,1.376-1.552,1.784-2.544c1.24-2.992,0.552-6.432-1.736-8.72l-32-32l-11.312,11.312l18.352,18.352h-44.688V248.001z"/>
	<path style="fill:#0F2323;" d="M248.002,80.001V27.313l18.344,18.344l11.312-11.312l-32-32l-0.056,0.056
		c-0.728-0.728-1.552-1.376-2.544-1.784c-3-1.248-6.432-0.56-8.72,1.736l-32,32l11.312,11.312l18.352-18.352v52.688H248.002z"/>
	<path style="fill:#0F2323;" d="M232.002,400.001v44.688l-18.344-18.344l-11.312,11.312l32,32c1.528,1.528,3.576,2.344,5.656,2.344
		c1.032,0,2.072-0.2,3.064-0.608s1.816-1.056,2.544-1.784l0.056,0.056l32-32l-11.312-11.312l-18.352,18.336v-44.688H232.002z"/>
	<path style="fill:#0F2323;" d="M96.002,128.001v224c0,17.648,14.352,32,32,32h256c4.416,0,8-3.584,8-8v-224v-48
		c0-4.416-3.584-8-8-8h-256C110.354,96.001,96.002,110.353,96.002,128.001z M128.002,368.001c-8.824,0-16-7.176-16-16V155.553
		c4.728,2.752,10.144,4.448,16,4.448h248v48h-64c-30.88,0-56,25.12-56,56s25.12,56,56,56h64v48H128.002z M376.002,224.001v80h-64
		c-22.056,0-40-17.944-40-40s17.944-40,40-40H376.002z M376.002,144.001h-248c-8.824,0-16-7.176-16-16s7.176-16,16-16h248V144.001z"
		/>
	<path style="fill:#0F2323;" d="M288.002,264.001c0,13.232,10.768,24,24,24s24-10.768,24-24s-10.768-24-24-24
		S288.002,250.769,288.002,264.001z M320.002,264.001c0,4.408-3.592,8-8,8s-8-3.592-8-8s3.592-8,8-8
		S320.002,259.593,320.002,264.001z"/>
	<path style="fill:#0F2323;" d="M192.002,216.409v-16.408h-16v16.408c-13.536,1.96-24,13.528-24,27.592c0,15.44,12.56,28,28,28h8
		c6.616,0,12,5.384,12,12s-5.384,12-12,12h-8c-6.616,0-12-5.384-12-12v-4h-16v4c0,14.064,10.464,25.632,24,27.592v16.408h16v-16.408
		c13.536-1.96,24-13.528,24-27.592c0-15.44-12.56-28-28-28h-8c-6.616,0-12-5.384-12-12s5.384-12,12-12h8c6.616,0,12,5.384,12,12v4
		h16v-4C216.002,229.937,205.538,218.369,192.002,216.409z"/>
	<path style="fill:#0F2323;" d="M464.002,452.689l-66.344-66.344l-11.312,11.312l66.344,66.344h-28.688v16h48
		c1.032,0,2.072-0.2,3.064-0.608c2.984-1.24,4.936-4.16,4.936-7.392v-48h-16V452.689z"/>
	<path style="fill:#0F2323;" d="M475.066,0.609c-1-0.416-2.032-0.536-3.064-0.536V0.001h-48v16h28.688l-66.344,66.344l11.312,11.312
		l66.344-66.344v28.688h16v-48C480.002,4.769,478.05,1.849,475.066,0.609z"/>
	<path style="fill:#0F2323;" d="M16.002,27.313l66.344,66.344l11.312-11.312L27.314,16.001h28.688v-16h-48v0.072
		c-1.032,0-2.072,0.128-3.064,0.544C1.954,1.849,0.002,4.769,0.002,8.001v48h16V27.313z"/>
	<path style="fill:#0F2323;" d="M4.938,479.393c0.992,0.408,2.032,0.608,3.064,0.608h48v-16H27.314l66.344-66.344l-11.312-11.312
		l-66.344,66.344v-28.688h-16v48C0.002,475.233,1.954,478.153,4.938,479.393z"/>
</g>
<g>
</g>
<g>
</g>
<g>
</g>
<g>
</g>
<g>
</g>
<g>
</g>
<g>
</g>
<g>
</g>
<g>
</g>
<g>
</g>
<g>
</g>
<g>
</g>
<g>
</g>
<g>
</g>
<g>
</g>
</svg>
